#!OML:ASF F:\VICON\USERDATA\INSTALL\Justin_Nancy\Justin_Nancy.ASF
:FULLY-SPECIFIED
:DEGREES
381
root -9.94112 17.3087 15.0059 7.84434 -49.1524 -6.01034
lowerback 3.66774 1.45508 3.14923
upperback -0.607728 2.1454 3.33971
thorax -2.69616 1.03423 1.54616
lowerneck -14.3716 -2.91669 -9.87442
upperneck 24.2021 -2.90541 4.36536
head 10.3285 -1.80229 2.8244
rclavicle 3.59303e-014 -4.85035e-014
rhumerus -27.6896 -7.27405 -80.4805
rradius 34.0712
rwrist 4.07528
rhand -14.3037 12.13
rfingers 7.12502
rthumb 11.8363 -17.5155
lclavicle 3.59303e-014 -4.85035e-014
lhumerus -34.3685 19.0896 81.2369
lradius 21.5243
lwrist -12.6978
lhand -14.9156 25.7912
lfingers 7.12502
lthumb 11.2461 55.4698
rfemur 11.3463 6.2368 29.5899
rtibia 15.7346
rfoot -11.9396 -7.28804
rtoes -7.46513
lfemur -28.432 -1.29837 -17.1613
ltibia 21.5523
lfoot -6.47157 4.75072
ltoes -15.6701
382
root -10.0393 17.315 15.1249 7.50341 -48.8459 -5.48427
lowerback 3.67747 1.3971 2.80773
upperback -0.687853 2.05546 3.15492
thorax -2.78854 0.994008 1.55025
lowerneck -14.4761 -2.93918 -9.70317
upperneck 24.326 -3.02389 4.55506
head 10.4009 -1.8206 2.84941
rclavicle -2.51463e-014 -1.74931e-014
rhumerus -27.9035 -8.00097 -80.5341
rradius 34.0062
rwrist 4.24801
rhand -14.4186 11.989
rfingers 7.12502
rthumb 11.7254 -17.6628
lclavicle -2.51463e-014 -1.74931e-014
lhumerus -34.2588 19.0318 81.073
lradius 21.1484
lwrist -12.8457
lhand -14.8456 25.3669
lfingers 7.12502
lthumb 11.3137 55.0418
rfemur 11.0182 6.46541 29.384
rtibia 17.2096
rfoot -11.5993 -7.65141
rtoes -8.56375
lfemur -28.248 -1.90056 -17.3186
ltibia 21.1204
lfoot -6.11516 4.19325
ltoes -10.3445
383
root -10.1408 17.3322 15.2498 6.64275 -48.6758 -4.34278
lowerback 3.51512 1.39011 2.16607
upperback -0.653161 2.00471 2.79271
thorax -2.66904 0.979758 1.54265
lowerneck -14.6417 -3.02907 -9.59642
upperneck 24.4326 -3.24373 4.8546
head 10.4905 -1.8766 2.91073
rclavicle 4.25399e-014 -7.95139e-015
rhumerus -28.1269 -8.88255 -80.4818
rradius 33.8474
rwrist 4.5793
rhand -13.7692 12.5589
rfingers 7.12502
rthumb 12.3516 -17.0562
lclavicle 4.25399e-014 -7.95139e-015
lhumerus -33.9302 18.8766 80.9287
lradius 20.6272
lwrist -13.0439
lhand -14.7289 25.2745
lfingers 7.12502
lthumb 11.4263 54.9431
rfemur 10.7243 6.50586 28.6158
rtibia 18.7257
rfoot -11.0937 -7.68075
rtoes -8.99433
lfemur -27.9419 -2.61039 -17.9317
ltibia 21.088
lfoot -5.88412 3.62692
ltoes -5.63737
384
root -10.2461 17.3512 15.3704 5.78752 -48.5526 -3.34664
lowerback 3.39478 1.31912 1.50029
upperback -0.614632 1.87466 2.63647
thorax -2.57572 0.925935 1.76493
lowerneck -14.383 -3.06989 -9.87684
upperneck 24.2177 -3.27135 4.93747
head 10.3722 -1.90465 2.98241
rclavicle -3.05134e-014 -2.14687e-014
rhumerus -28.2226 -9.85825 -80.2009
rradius 33.3484
rwrist 5.22013
rhand -13.5058 13.2044
rfingers 7.12502
rthumb 12.6056 -16.3952
lclavicle -3.05134e-014 -2.14687e-014
lhumerus -33.936 19.6729 80.5969
lradius 20.168
lwrist -13.7899
lhand -14.6843 25.5062
lfingers 7.12502
lthumb 11.4692 55.1725
rfemur 10.5228 6.44873 27.9107
rtibia 20.2201
rfoot -10.5164 -7.52573
rtoes -7.1862
lfemur -27.8228 -3.0152 -18.5729
ltibia 21.85
lfoot -5.61054 3.38485
ltoes -3.62197
385
root -10.3513 17.4002 15.4899 5.50071 -48.3794 -3.21458
lowerback 3.55977 1.23711 1.36183
upperback -0.673565 1.76749 2.67889
thorax -2.73258 0.874698 1.88819
lowerneck -14.1519 -3.08479 -9.9709
upperneck 24.1878 -3.24883 4.76015
head 10.3154 -1.92667 2.93792
rclavicle -6.9674e-014 6.36111e-015
rhumerus -28.66 -10.0904 -80.0152
rradius 33.268
rwrist 5.0911
rhand -13.9972 12.8881
rfingers 7.12502
rthumb 12.1318 -16.7401
lclavicle -6.9674e-014 6.36111e-015
lhumerus -34.2383 20.5424 80.1708
lradius 19.941
lwrist -14.5283
lhand -14.7499 25.5862
lfingers 7.12502
lthumb 11.4059 55.2559
rfemur 10.2175 6.40475 27.8428
rtibia 21.9545
rfoot -9.76679 -7.29013
rtoes -5.86901
lfemur -27.1979 -0.395206 -19.8987
ltibia 22.6979
lfoot -5.81579 1.21847
ltoes -14.6021
